# xmcd CD database file
#
# Track frame offsets:
#	150
#	21400
#	38650
#	52600
#	66200
#	93012
#	113700
#	132037
#	147600
#	166300
#
# Disc length: 2377 seconds
#
# Revision: 1
# Processed by: cddbd v1.5PL3 Copyright (c) Steve Scherf et al.
# Submitted via: CDex 1.50beta10
#
DISCID=7c09470a
DTITLE=Louisiana "Guitar" Red - Nobody Knows...
DYEAR=1995
DGENRE=Blues
TTITLE0=When The Sun Rose This Morning
TTITLE1=Hurt Me To My Heart
TTITLE2=Whoopin-hollerin
TTITLE3=Louise
TTITLE4=Nobody Knows
TTITLE5=Mind To Ramble
TTITLE6=My Girl
TTITLE7=Poodle Dog
TTITLE8=Alabama Blues
TTITLE9=Dog In Me
EXTD=YEAR: 1995
EXTT0=
EXTT1=
EXTT2=
EXTT3=
EXTT4=
EXTT5=
EXTT6=
EXTT7=
EXTT8=
EXTT9=
PLAYORDER=
